<?xml version="1.0" encoding="UTF-8" standalone="no"?>
<!DOCTYPE svg PUBLIC "-//W3C//DTD SVG 1.1//EN" "http://www.w3.org/Graphics/SVG/1.1/DTD/svg11.dtd">
<svg width="100%" height="100%" viewBox="0 0 1984 1133" version="1.1" xmlns="http://www.w3.org/2000/svg" xmlns:xlink="http://www.w3.org/1999/xlink" xml:space="preserve" xmlns:serif="http://www.serif.com/" style="fill-rule:evenodd;clip-rule:evenodd;stroke-linejoin:round;stroke-miterlimit:2;">
    <g transform="matrix(4.166667,0,0,4.166667,0,0)">
        <clipPath id="_clip1">
            <rect x="0" y="0" width="476.1" height="271.8"/>
        </clipPath>
        <g clip-path="url(#_clip1)">
            <path d="M244.9,92.42C236.32,102.27 225.01,112.78 218,123.72C192.55,163.42 253.44,162.44 276.74,158.22C296.3,141.7 328,122.92 340.93,100.49C345.7,92.22 348.25,84.4 336.79,80.82C320.31,75.67 284.16,86.68 268.62,94.42C261.33,98.05 254.93,103.05 247.95,107.16C246.58,105.33 252.09,100.37 253.45,99.24C270.81,84.87 327.07,66.25 346.54,80.03C362.65,91.44 346.51,111.98 337.6,122.61C327.89,134.2 316.22,143.68 305.2,153.91C320.01,151.77 334.76,148.66 349.36,145.33C373.22,139.88 396.81,132.27 420.52,126.88C424.92,125.88 429.68,124.78 434.19,124.69C429.27,127.38 423.2,129.26 417.78,131.02C378.14,143.9 337.39,153.42 296.27,160.49C274.18,179.88 246.4,197.44 229.04,221.38C224.08,228.22 215.38,239.34 228.46,242.47C242.58,245.84 273.99,237.37 288.79,233.51C294.43,232.04 300.31,229.84 305.85,228.51C306.54,228.34 308.11,227.61 307.95,228.88C290.5,234.77 272.29,240.84 254.16,244.37C234.91,248.12 204.12,251.8 214.64,221.47C222.75,198.08 251.54,179.35 269.33,163.56C254.04,164.56 236.23,165.63 221.75,159.76C179.3,142.55 235.05,97.16 249.31,79.28C258.3,68.02 273.5,47.62 253.94,38.25C234.11,28.76 183.8,41.84 162.58,48.51C125.28,60.23 89.43,79 62.39,107.48C50.77,109.3 57.1,98.55 60.73,93.46C90.71,51.52 191.19,21.28 240.69,25.32C247.31,25.86 257.5,28.83 262.77,32.87C286.15,50.81 257.66,77.75 244.89,92.42L244.9,92.42Z" style="fill:rgb(89,24,18);fill-rule:nonzero;stroke:rgb(89,24,18);stroke-width:0.24px;"/>
            <path d="M472.28,135.9C472.28,138.06 472.19,140.21 472,142.36C471.81,144.51 471.53,146.66 471.15,148.81C470.77,150.95 470.31,153.09 469.74,155.22C469.18,157.35 468.52,159.47 467.77,161.59C467.02,163.7 466.18,165.81 465.25,167.9C464.32,169.99 463.3,172.07 462.18,174.13C461.07,176.19 459.87,178.24 458.57,180.27C457.28,182.3 455.9,184.31 454.43,186.3C452.96,188.29 451.41,190.26 449.77,192.21C448.13,194.16 446.41,196.08 444.6,197.98C442.79,199.88 440.9,201.76 438.93,203.6C436.96,205.45 434.91,207.27 432.78,209.06C430.65,210.85 428.44,212.61 426.16,214.34C423.88,216.07 421.52,217.77 419.09,219.44C416.66,221.11 414.15,222.74 411.58,224.33C409.01,225.93 406.36,227.49 403.65,229.01C400.94,230.53 398.16,232.02 395.32,233.47C392.48,234.92 389.58,236.32 386.61,237.69C383.65,239.06 380.63,240.38 377.55,241.67C374.47,242.95 371.34,244.19 368.15,245.39C364.96,246.59 361.73,247.74 358.44,248.85C355.15,249.96 351.82,251.02 348.44,252.04C345.06,253.06 341.64,254.02 338.17,254.95C334.7,255.87 331.2,256.74 327.66,257.57C324.12,258.39 320.54,259.17 316.93,259.9C313.32,260.63 309.68,261.3 306.01,261.93C302.34,262.56 298.65,263.13 294.93,263.65C291.21,264.17 287.47,264.65 283.71,265.07C279.95,265.49 276.17,265.86 272.38,266.17C268.59,266.49 264.78,266.75 260.97,266.96C257.16,267.17 253.33,267.33 249.5,267.44C245.67,267.55 241.84,267.6 238.01,267.6C234.18,267.6 230.35,267.55 226.52,267.44C222.69,267.33 218.87,267.18 215.05,266.96C211.23,266.74 207.43,266.49 203.64,266.17C199.85,265.85 196.07,265.49 192.31,265.07C188.55,264.65 184.81,264.18 181.09,263.65C177.37,263.13 173.68,262.55 170.01,261.93C166.34,261.31 162.7,260.63 159.09,259.9C155.48,259.17 151.91,258.4 148.36,257.57C144.82,256.75 141.32,255.87 137.85,254.95C134.38,254.03 130.96,253.06 127.58,252.04C124.2,251.02 120.87,249.96 117.58,248.85C114.29,247.74 111.05,246.59 107.87,245.39C104.68,244.19 101.55,242.95 98.47,241.67C95.39,240.39 92.37,239.06 89.41,237.69C86.45,236.32 83.55,234.92 80.7,233.47C77.86,232.02 75.08,230.54 72.37,229.01C69.66,227.49 67.02,225.93 64.44,224.33C61.87,222.73 59.36,221.1 56.93,219.44C54.5,217.77 52.14,216.08 49.86,214.34C47.58,212.6 45.37,210.85 43.24,209.06C41.11,207.27 39.06,205.45 37.09,203.6C35.12,201.75 33.23,199.88 31.42,197.98C29.61,196.08 27.89,194.16 26.25,192.21C24.61,190.26 23.06,188.29 21.59,186.3C20.12,184.31 18.74,182.3 17.45,180.27C16.16,178.24 14.96,176.2 13.84,174.13C12.73,172.07 11.71,169.99 10.77,167.9C9.83,165.81 9,163.71 8.25,161.59C7.5,159.48 6.85,157.35 6.28,155.22C5.72,153.09 5.25,150.95 4.87,148.81C4.49,146.67 4.21,144.52 4.02,142.36C3.83,140.21 3.74,138.05 3.74,135.9C3.74,133.75 3.83,131.59 4.02,129.44C4.21,127.29 4.49,125.14 4.87,122.99C5.25,120.85 5.71,118.71 6.28,116.58C6.84,114.45 7.5,112.33 8.25,110.21C9,108.1 9.84,105.99 10.77,103.9C11.7,101.81 12.72,99.73 13.84,97.67C14.95,95.61 16.15,93.56 17.45,91.53C18.75,89.5 20.12,87.49 21.59,85.5C23.06,83.51 24.61,81.54 26.25,79.59C27.89,77.64 29.61,75.72 31.42,73.82C33.23,71.92 35.12,70.05 37.09,68.2C39.06,66.35 41.11,64.53 43.24,62.74C45.37,60.95 47.58,59.19 49.86,57.46C52.14,55.73 54.5,54.03 56.93,52.36C59.36,50.69 61.86,49.06 64.44,47.47C67.01,45.87 69.66,44.31 72.37,42.79C75.08,41.27 77.86,39.78 80.7,38.33C83.54,36.88 86.44,35.48 89.41,34.11C92.37,32.74 95.39,31.42 98.47,30.13C101.55,28.85 104.68,27.61 107.87,26.41C111.06,25.21 114.29,24.06 117.58,22.95C120.87,21.84 124.2,20.78 127.58,19.76C130.96,18.74 134.38,17.78 137.85,16.85C141.32,15.93 144.82,15.06 148.36,14.23C151.9,13.41 155.48,12.63 159.09,11.9C162.7,11.17 166.34,10.5 170.01,9.87C173.68,9.24 177.37,8.67 181.09,8.15C184.81,7.63 188.55,7.15 192.31,6.73C196.07,6.31 199.85,5.94 203.64,5.63C207.43,5.31 211.23,5.05 215.05,4.84C218.87,4.63 222.69,4.47 226.52,4.36C230.35,4.25 234.18,4.2 238.01,4.2C241.84,4.2 245.67,4.25 249.5,4.36C253.33,4.47 257.15,4.62 260.97,4.84C264.79,5.06 268.59,5.31 272.38,5.63C276.17,5.95 279.95,6.31 283.71,6.73C287.47,7.15 291.21,7.62 294.93,8.15C298.65,8.67 302.34,9.25 306.01,9.87C309.68,10.5 313.32,11.17 316.93,11.9C320.54,12.63 324.11,13.4 327.66,14.23C331.2,15.05 334.71,15.93 338.17,16.85C341.64,17.77 345.06,18.74 348.44,19.76C351.82,20.78 355.16,21.84 358.44,22.95C361.73,24.06 364.97,25.21 368.15,26.41C371.34,27.61 374.47,28.85 377.55,30.13C380.63,31.41 383.65,32.74 386.61,34.11C389.57,35.48 392.47,36.88 395.32,38.33C398.16,39.78 400.94,41.26 403.65,42.79C406.36,44.31 409,45.87 411.58,47.47C414.15,49.07 416.66,50.7 419.09,52.36C421.52,54.03 423.88,55.72 426.16,57.46C428.44,59.19 430.65,60.95 432.78,62.74C434.91,64.53 436.96,66.35 438.93,68.2C440.9,70.05 442.79,71.92 444.6,73.82C446.41,75.72 448.13,77.64 449.77,79.59C451.41,81.54 452.96,83.51 454.43,85.5C455.9,87.49 457.28,89.5 458.57,91.53C459.86,93.56 461.06,95.6 462.18,97.67C463.29,99.73 464.31,101.81 465.25,103.9C466.18,105.99 467.02,108.09 467.77,110.21C468.52,112.32 469.17,114.45 469.74,116.58C470.3,118.71 470.77,120.85 471.15,122.99C471.53,125.13 471.81,127.28 472,129.44C472.19,131.59 472.28,133.75 472.28,135.9Z" style="fill:none;fill-rule:nonzero;stroke:rgb(89,24,18);stroke-width:3.14px;stroke-linejoin:miter;stroke-miterlimit:10;"/>
        </g>
    </g>
</svg>
