<?xml version="1.0" encoding="UTF-8"?>
<svg id="a" xmlns="http://www.w3.org/2000/svg" xmlns:xlink="http://www.w3.org/1999/xlink"
  viewBox="0 0 512.53 502.25">
  <defs>
    <clipPath id="b">
      <path
        d="M30.82.57h450.51c16.89,0,30.59,13.42,30.59,29.98v441.48c0,16.55-13.7,29.98-30.59,29.98H30.82c-16.89,0-30.59-13.42-30.59-29.98V30.55C.24,13.99,13.93.57,30.82.57Z"
        style="fill:none;" />
    </clipPath>
    <clipPath id="c">
      <rect width="512.53" height="502.25" style="fill:none;" />
    </clipPath>
    <clipPath id="d">
      <rect x=".24" y="100.1" width="511.69" height="302.37" style="fill:none;" />
    </clipPath>
  </defs>
  <g style="clip-path:url(#b);">
    <g style="isolation:isolate;">
      <g style="clip-path:url(#c);">
        <rect x=".24" y=".57" width="511.69" height="501.43" style="fill:#591812;" />
      </g>
    </g>
  </g>
  <g style="clip-path:url(#d);">
    <path
      d="M247.33,195.43c-10.52,12.11-24.4,25.04-32.99,38.48-31.21,48.82,43.46,47.61,72.03,42.42,23.99-20.32,62.86-43.4,78.71-70.98,5.84-10.16,8.97-19.79-5.08-24.19-20.22-6.33-64.54,7.21-83.59,16.73-8.94,4.45-16.79,10.62-25.34,15.67-1.67-2.25,5.08-8.35,6.75-9.74,21.29-17.66,90.27-40.57,114.14-23.63,19.76,14.03-.04,39.28-10.97,52.36-11.92,14.25-26.21,25.91-39.73,38.49,18.16-2.64,36.24-6.45,54.15-10.55,29.27-6.7,58.18-16.06,87.26-22.69,5.4-1.24,11.23-2.58,16.76-2.7-6.04,3.3-13.47,5.62-20.13,7.78-48.62,15.83-98.58,27.55-149,36.23-27.08,23.84-61.15,45.43-82.43,74.87-6.08,8.41-16.76,22.09-.7,25.93,17.31,4.15,55.83-6.27,73.98-11.03,6.92-1.81,14.13-4.51,20.92-6.16.85-.2,2.77-1.11,2.58.47-21.39,7.25-43.73,14.7-65.96,19.05-23.62,4.62-61.36,9.13-48.47-28.16,9.95-28.76,45.24-51.8,67.06-71.21-18.75,1.23-40.59,2.55-58.35-4.68-52.05-21.16,16.3-76.98,33.8-98.96,11.03-13.85,29.67-38.92,5.67-50.45-24.33-11.68-86.01,4.41-112.02,12.62-45.73,14.42-89.69,37.5-122.85,72.52-14.24,2.24-6.49-10.99-2.03-17.23,36.76-51.57,159.96-88.76,220.68-83.78,8.13.66,20.62,4.32,27.07,9.28,28.66,22.06-6.26,55.18-21.92,73.22h0v-.02.02Z"
      style="fill:#fdfbf5; stroke:#fdfbf5; stroke-miterlimit:10; stroke-width:11px;" />
  </g>
</svg>