<?xml version="1.0" encoding="UTF-8"?><svg id="a" xmlns="http://www.w3.org/2000/svg" xmlns:xlink="http://www.w3.org/1999/xlink" viewBox="0 0 511.69 500"><defs><clipPath id="b"><rect width="500" height="500" rx="29.89" ry="29.89" style="fill:none;"/></clipPath><clipPath id="c"><rect x="-.23" y="-.57" width="500.82" height="500.82" style="fill:none;"/></clipPath><clipPath id="d"><rect x="7.27" y="103.33" width="504.42" height="298.07" style="fill:none;"/></clipPath></defs><g style="clip-path:url(#b);"><g style="isolation:isolate;"><g style="clip-path:url(#c);"><rect width="500" height="500" style="fill:#fdfbf5;"/></g></g></g><g style="clip-path:url(#d);"><path d="M242.89,199.65c-10.37,11.94-24.05,24.68-32.52,37.93-30.77,48.13,42.84,46.93,71.01,41.82,23.65-20.03,61.97-42.78,77.59-69.97,5.76-10.02,8.84-19.51-5.01-23.85-19.93-6.24-63.62,7.11-82.4,16.49-8.81,4.39-16.55,10.47-24.98,15.45-1.65-2.22,5.01-8.23,6.65-9.6,20.99-17.41,88.99-39.99,112.52-23.29,19.48,13.83-.04,38.72-10.81,51.62-11.75,14.05-25.84,25.54-39.17,37.94,17.9-2.6,35.73-6.36,53.38-10.4,28.85-6.6,57.35-15.83,86.02-22.37,5.32-1.22,11.07-2.54,16.52-2.66-5.95,3.25-13.28,5.54-19.84,7.67-47.93,15.61-97.18,27.16-146.88,35.72-26.7,23.5-60.28,44.78-81.26,73.81-5.99,8.29-16.52,21.78-.69,25.56,17.06,4.09,55.04-6.18,72.93-10.87,6.82-1.78,13.93-4.45,20.62-6.07.84-.2,2.73-1.09,2.54.46-21.09,7.15-43.11,14.49-65.02,18.78-23.28,4.55-60.49,9-47.78-27.76,9.81-28.35,44.6-51.06,66.11-70.2-18.48,1.21-40.01,2.51-57.52-4.61-51.31-20.86,16.07-75.89,33.32-97.55,10.87-13.65,29.25-38.37,5.59-49.73-23.98-11.51-84.79,4.35-110.43,12.44-45.08,14.22-88.42,36.97-121.1,71.49-14.04,2.21-6.4-10.83-2-16.99,36.24-50.84,157.69-87.5,217.54-82.59,8.01.65,20.33,4.26,26.69,9.15,28.25,21.75-6.17,54.4-21.61,72.18h0v-.02Z" style="fill:#591913; stroke:#591913; stroke-miterlimit:10; stroke-width:10px;"/></g></svg>